<?xml version="1.0" encoding="utf-8" standalone="no"?>
<!DOCTYPE svg PUBLIC "-//W3C//DTD SVG 1.1//EN"
  "http://www.w3.org/Graphics/SVG/1.1/DTD/svg11.dtd">
<svg xmlns:xlink="http://www.w3.org/1999/xlink" width="460.8pt" height="345.6pt" viewBox="0 0 460.8 345.6" xmlns="http://www.w3.org/2000/svg" version="1.1">
 <metadata>
  <rdf:RDF xmlns:dc="http://purl.org/dc/elements/1.1/" xmlns:cc="http://creativecommons.org/ns#" xmlns:rdf="http://www.w3.org/1999/02/22-rdf-syntax-ns#">
   <cc:Work>
    <dc:type rdf:resource="http://purl.org/dc/dcmitype/StillImage"/>
    <dc:date>2023-06-19T08:09:49.786436</dc:date>
    <dc:format>image/svg+xml</dc:format>
    <dc:creator>
     <cc:Agent>
      <dc:title>Matplotlib v3.5.3, https://matplotlib.org/</dc:title>
     </cc:Agent>
    </dc:creator>
   </cc:Work>
  </rdf:RDF>
 </metadata>
 <defs>
  <style type="text/css">*{stroke-linejoin: round; stroke-linecap: butt}</style>
 </defs>
 <g id="figure_1">
  <g id="patch_1">
   <path d="M 0 345.6 
L 460.8 345.6 
L 460.8 0 
L 0 0 
z
" style="fill: #ffffff"/>
  </g>
  <g id="axes_1">
   <g id="patch_2">
    <path d="M 57.6 307.584 
L 414.72 307.584 
L 414.72 41.472 
L 57.6 41.472 
z
" style="fill: #ffffff"/>
   </g>
   <g id="PathCollection_1">
    <path d="M 60.87633 307.584 
L 64.152661 307.584 
L 67.428991 307.584 
L 70.705321 307.584 
L 73.981651 307.584 
L 77.257982 307.584 
L 80.534312 307.584 
L 83.810642 307.584 
L 87.086972 307.584 
L 90.363303 307.584 
L 93.639633 307.584 
L 96.915963 307.584 
L 100.192294 307.584 
L 103.468624 307.584 
L 106.744954 307.584 
L 110.021284 307.584 
L 113.297615 307.584 
L 116.573945 307.584 
L 119.850275 307.584 
L 123.126606 307.584 
L 126.402936 307.584 
L 129.679266 307.584 
L 132.955596 307.584 
L 136.231927 307.584 
L 139.508257 307.584 
L 142.784587 307.584 
L 146.060917 307.584 
L 149.337248 307.584 
L 152.613578 307.584 
L 155.889908 307.584 
L 159.166239 307.584 
L 162.442569 307.584 
L 165.718899 307.584 
L 168.995229 307.584 
L 172.27156 307.584 
L 175.54789 307.584 
L 178.82422 307.584 
L 182.10055 307.584 
L 185.376881 307.584 
L 188.653211 307.584 
L 191.929541 307.584 
L 195.205872 307.584 
L 198.482202 307.584 
L 201.758532 307.584 
L 205.034862 307.584 
L 208.311193 307.584 
L 211.587523 307.584 
L 214.863853 307.584 
L 218.140183 307.584 
L 221.416514 307.584 
L 224.692844 307.584 
L 227.969174 307.584 
L 231.245505 307.584 
L 234.521835 307.584 
L 237.798165 307.584 
L 241.074495 307.584 
L 244.350826 307.584 
L 247.627156 307.584 
L 250.903486 307.584 
L 254.179817 307.584 
L 257.456147 307.584 
L 260.732477 307.584 
L 264.008807 307.584 
L 267.285138 307.584 
L 270.561468 307.584 
L 273.837798 307.584 
L 277.114128 307.584 
L 280.390459 307.584 
L 283.666789 307.584 
L 286.943119 307.584 
L 290.21945 307.584 
L 293.49578 307.584 
L 296.77211 307.584 
L 300.04844 307.584 
L 303.324771 307.584 
L 306.601101 307.584 
L 309.877431 307.584 
L 313.153761 307.584 
L 316.430092 307.584 
L 319.706422 307.584 
L 322.982752 307.584 
L 326.259083 307.584 
L 329.535413 307.584 
L 332.811743 307.584 
L 336.088073 307.584 
L 339.364404 307.584 
L 342.640734 307.584 
L 345.917064 307.584 
L 349.193394 307.584 
L 352.469725 307.584 
L 355.746055 307.584 
L 359.022385 307.584 
L 362.298716 307.584 
L 365.575046 307.584 
L 368.851376 307.584 
L 372.127706 307.584 
L 375.404037 307.584 
L 378.680367 307.584 
L 381.956697 307.584 
L 385.233028 307.584 
L 388.509358 307.584 
L 391.785688 307.584 
L 395.062018 307.584 
L 398.338349 307.584 
L 401.614679 307.584 
L 404.891009 307.584 
L 408.167339 307.584 
L 411.44367 307.584 
L 414.72 307.584 
L 414.72 305.142606 
L 414.72 302.701211 
L 414.72 300.259817 
L 414.72 297.818422 
L 414.72 295.377028 
L 414.72 292.935633 
L 414.72 290.494239 
L 414.72 288.052844 
L 414.72 285.61145 
L 414.72 283.170055 
L 414.72 280.728661 
L 414.72 278.287266 
L 414.72 275.845872 
L 414.72 273.404477 
L 414.72 270.963083 
L 414.72 268.521688 
L 414.72 266.080294 
L 414.72 263.638899 
L 414.72 261.197505 
L 414.72 258.75611 
L 414.72 256.314716 
L 414.72 253.873321 
L 414.72 251.431927 
L 414.72 248.990532 
L 414.72 246.549138 
L 414.72 244.107743 
L 414.72 241.666349 
L 414.72 239.224954 
L 414.72 236.78356 
L 414.72 234.342165 
L 414.72 231.900771 
L 414.72 229.459376 
L 414.72 227.017982 
L 414.72 224.576587 
L 414.72 222.135193 
L 414.72 219.693798 
L 414.72 217.252404 
L 414.72 214.811009 
L 414.72 212.369615 
L 414.72 209.92822 
L 414.72 207.486826 
L 414.72 205.045431 
L 414.72 202.604037 
L 414.72 200.162642 
L 414.72 197.721248 
L 414.72 195.279853 
L 414.72 192.838459 
L 414.72 190.397064 
L 414.72 187.95567 
L 414.72 185.514275 
L 414.72 183.072881 
L 414.72 180.631486 
L 414.72 178.190092 
L 414.72 175.748697 
L 414.72 173.307303 
L 414.72 170.865908 
L 414.72 168.424514 
L 414.72 165.983119 
L 414.72 163.541725 
L 414.72 161.10033 
L 414.72 158.658936 
L 414.72 156.217541 
L 414.72 153.776147 
L 414.72 151.334752 
L 414.72 148.893358 
L 414.72 146.451963 
L 414.72 144.010569 
L 414.72 141.569174 
L 414.72 139.12778 
L 414.72 136.686385 
L 414.72 134.244991 
L 414.72 131.803596 
L 414.72 129.362202 
L 414.72 126.920807 
L 414.72 124.479413 
L 414.72 123.793553 
L 412.701051 124.479413 
L 411.44367 124.906559 
L 408.167339 126.019566 
L 405.514376 126.920807 
L 404.891009 127.132572 
L 401.614679 128.245579 
L 398.338349 129.358585 
L 398.327702 129.362202 
L 395.062018 130.471591 
L 391.785688 131.584598 
L 391.141027 131.803596 
L 388.509358 132.697604 
L 385.233028 133.810611 
L 383.954353 134.244991 
L 381.956697 134.923617 
L 378.680367 136.036623 
L 376.767678 136.686385 
L 375.404037 137.14963 
L 372.127706 138.262636 
L 369.581004 139.12778 
L 368.851376 139.375643 
L 365.575046 140.488649 
L 362.394329 141.569174 
L 362.298716 141.601655 
L 359.022385 142.714662 
L 355.746055 143.827668 
L 355.207655 144.010569 
L 352.469725 144.940675 
L 349.193394 146.053681 
L 348.02098 146.451963 
L 345.917064 147.166687 
L 342.640734 148.279694 
L 340.834306 148.893358 
L 339.364404 149.3927 
L 336.088073 150.505706 
L 333.647631 151.334752 
L 332.811743 151.618713 
L 329.535413 152.731719 
L 326.460957 153.776147 
L 326.259083 153.844726 
L 322.982752 154.957732 
L 319.706422 156.070738 
L 319.274282 156.217541 
L 316.430092 157.183745 
L 313.153761 158.296751 
L 312.087608 158.658936 
L 309.877431 159.409758 
L 306.601101 160.522764 
L 304.900933 161.10033 
L 303.324771 161.63577 
L 300.04844 162.748777 
L 297.714259 163.541725 
L 296.77211 163.861783 
L 293.49578 164.97479 
L 290.527584 165.983119 
L 290.21945 166.087796 
L 286.943119 167.200802 
L 283.666789 168.313809 
L 283.34091 168.424514 
L 280.390459 169.426815 
L 277.114128 170.539822 
L 276.154235 170.865908 
L 273.837798 171.652828 
L 270.561468 172.765834 
L 268.967561 173.307303 
L 267.285138 173.878841 
L 264.008807 174.991847 
L 261.780886 175.748697 
L 260.732477 176.104854 
L 257.456147 177.21786 
L 254.594212 178.190092 
L 254.179817 178.330866 
L 250.903486 179.443873 
L 247.627156 180.556879 
L 247.407537 180.631486 
L 244.350826 181.669886 
L 241.074495 182.782892 
L 240.220863 183.072881 
L 237.798165 183.895898 
L 234.521835 185.008905 
L 233.034188 185.514275 
L 231.245505 186.121911 
L 227.969174 187.234918 
L 225.847514 187.95567 
L 224.692844 188.347924 
L 221.416514 189.46093 
L 218.660839 190.397064 
L 218.140183 190.573937 
L 214.863853 191.686943 
L 211.587523 192.79995 
L 211.474164 192.838459 
L 208.311193 193.912956 
L 205.034862 195.025962 
L 204.28749 195.279853 
L 201.758532 196.138969 
L 198.482202 197.251975 
L 197.100815 197.721248 
L 195.205872 198.364982 
L 191.929541 199.477988 
L 189.914141 200.162642 
L 188.653211 200.590994 
L 185.376881 201.704001 
L 182.727466 202.604037 
L 182.10055 202.817007 
L 178.82422 203.930014 
L 175.54789 205.04302 
L 175.540792 205.045431 
L 172.27156 206.156026 
L 168.995229 207.269033 
L 168.354117 207.486826 
L 165.718899 208.382039 
L 162.442569 209.495046 
L 161.167443 209.92822 
L 159.166239 210.608052 
L 155.889908 211.721058 
L 153.980768 212.369615 
L 152.613578 212.834065 
L 149.337248 213.947071 
L 146.794094 214.811009 
L 146.060917 215.060078 
L 142.784587 216.173084 
L 139.607419 217.252404 
L 139.508257 217.28609 
L 136.231927 218.399097 
L 132.955596 219.512103 
L 132.420745 219.693798 
L 129.679266 220.625109 
L 126.402936 221.738116 
L 125.23407 222.135193 
L 123.126606 222.851122 
L 119.850275 223.964129 
L 118.047396 224.576587 
L 116.573945 225.077135 
L 113.297615 226.190141 
L 110.860721 227.017982 
L 110.021284 227.303148 
L 106.744954 228.416154 
L 103.674047 229.459376 
L 103.468624 229.529161 
L 100.192294 230.642167 
L 96.915963 231.755173 
L 96.487372 231.900771 
L 93.639633 232.86818 
L 90.363303 233.981186 
L 89.300698 234.342165 
L 87.086972 235.094193 
L 83.810642 236.207199 
L 82.114023 236.78356 
L 80.534312 237.320205 
L 77.257982 238.433212 
L 74.927349 239.224954 
L 73.981651 239.546218 
L 70.705321 240.659225 
L 67.740674 241.666349 
L 67.428991 241.772231 
L 64.152661 242.885237 
L 60.87633 243.998244 
L 60.554 244.107743 
L 57.6 245.11125 
L 57.6 246.549138 
L 57.6 248.990532 
L 57.6 251.431927 
L 57.6 253.873321 
L 57.6 256.314716 
L 57.6 258.75611 
L 57.6 261.197505 
L 57.6 263.638899 
L 57.6 266.080294 
L 57.6 268.521688 
L 57.6 270.963083 
L 57.6 273.404477 
L 57.6 275.845872 
L 57.6 278.287266 
L 57.6 280.728661 
L 57.6 283.170055 
L 57.6 285.61145 
L 57.6 288.052844 
L 57.6 290.494239 
L 57.6 292.935633 
L 57.6 295.377028 
L 57.6 297.818422 
L 57.6 300.259817 
L 57.6 302.701211 
L 57.6 305.142606 
L 57.6 307.584 
z
" clip-path="url(#pafc8bd564e)" style="fill: #add8e6"/>
   </g>
   <g id="PolyCollection_1">
    <path d="M 254.179817 63.44455 
L 254.179817 115.527633 
L 385.233028 115.527633 
L 385.233028 63.44455 
L 385.233028 63.44455 
L 254.179817 63.44455 
z
" clip-path="url(#pafc8bd564e)" style="fill: #ffff00; fill-opacity: 0.5; stroke-dasharray: 2,3.3; stroke-dashoffset: 0; stroke: #ffff00; stroke-opacity: 0.5; stroke-width: 2"/>
   </g>
   <g id="PolyCollection_2">
    <path d="M 77.257982 216.438606 
L 77.257982 297.818422 
L 188.653211 297.818422 
L 188.653211 216.438606 
L 188.653211 216.438606 
L 77.257982 216.438606 
z
" clip-path="url(#pafc8bd564e)" style="fill: #cd853f; fill-opacity: 0.5; stroke-dasharray: 7.4,3.2; stroke-dashoffset: 0; stroke: #cd853f; stroke-opacity: 0.5; stroke-width: 2"/>
   </g>
   <g id="matplotlib.axis_1">
    <g id="xtick_1">
     <g id="line2d_1">
      <defs>
       <path id="m1ef9f786f4" d="M 0 0 
L 0 3.5 
" style="stroke: #000000; stroke-width: 0.8"/>
      </defs>
      <g>
       <use xlink:href="#m1ef9f786f4" x="57.6" y="307.584" style="stroke: #000000; stroke-width: 0.8"/>
      </g>
     </g>
     <g id="text_1">
      <!-- 5000 -->
      <g transform="translate(44.875 322.182437)scale(0.1 -0.1)">
       <defs>
        <path id="DejaVuSans-35" d="M 691 4666 
L 3169 4666 
L 3169 4134 
L 1269 4134 
L 1269 2991 
Q 1406 3038 1543 3061 
Q 1681 3084 1819 3084 
Q 2600 3084 3056 2656 
Q 3513 2228 3513 1497 
Q 3513 744 3044 326 
Q 2575 -91 1722 -91 
Q 1428 -91 1123 -41 
Q 819 9 494 109 
L 494 744 
Q 775 591 1075 516 
Q 1375 441 1709 441 
Q 2250 441 2565 725 
Q 2881 1009 2881 1497 
Q 2881 1984 2565 2268 
Q 2250 2553 1709 2553 
Q 1456 2553 1204 2497 
Q 953 2441 691 2322 
L 691 4666 
z
" transform="scale(0.015625)"/>
        <path id="DejaVuSans-30" d="M 2034 4250 
Q 1547 4250 1301 3770 
Q 1056 3291 1056 2328 
Q 1056 1369 1301 889 
Q 1547 409 2034 409 
Q 2525 409 2770 889 
Q 3016 1369 3016 2328 
Q 3016 3291 2770 3770 
Q 2525 4250 2034 4250 
z
M 2034 4750 
Q 2819 4750 3233 4129 
Q 3647 3509 3647 2328 
Q 3647 1150 3233 529 
Q 2819 -91 2034 -91 
Q 1250 -91 836 529 
Q 422 1150 422 2328 
Q 422 3509 836 4129 
Q 1250 4750 2034 4750 
z
" transform="scale(0.015625)"/>
       </defs>
       <use xlink:href="#DejaVuSans-35"/>
       <use xlink:href="#DejaVuSans-30" x="63.623047"/>
       <use xlink:href="#DejaVuSans-30" x="127.246094"/>
       <use xlink:href="#DejaVuSans-30" x="190.869141"/>
      </g>
     </g>
    </g>
    <g id="xtick_2">
     <g id="line2d_2">
      <g>
       <use xlink:href="#m1ef9f786f4" x="123.126606" y="307.584" style="stroke: #000000; stroke-width: 0.8"/>
      </g>
     </g>
     <g id="text_2">
      <!-- 6000 -->
      <g transform="translate(110.401606 322.182437)scale(0.1 -0.1)">
       <defs>
        <path id="DejaVuSans-36" d="M 2113 2584 
Q 1688 2584 1439 2293 
Q 1191 2003 1191 1497 
Q 1191 994 1439 701 
Q 1688 409 2113 409 
Q 2538 409 2786 701 
Q 3034 994 3034 1497 
Q 3034 2003 2786 2293 
Q 2538 2584 2113 2584 
z
M 3366 4563 
L 3366 3988 
Q 3128 4100 2886 4159 
Q 2644 4219 2406 4219 
Q 1781 4219 1451 3797 
Q 1122 3375 1075 2522 
Q 1259 2794 1537 2939 
Q 1816 3084 2150 3084 
Q 2853 3084 3261 2657 
Q 3669 2231 3669 1497 
Q 3669 778 3244 343 
Q 2819 -91 2113 -91 
Q 1303 -91 875 529 
Q 447 1150 447 2328 
Q 447 3434 972 4092 
Q 1497 4750 2381 4750 
Q 2619 4750 2861 4703 
Q 3103 4656 3366 4563 
z
" transform="scale(0.015625)"/>
       </defs>
       <use xlink:href="#DejaVuSans-36"/>
       <use xlink:href="#DejaVuSans-30" x="63.623047"/>
       <use xlink:href="#DejaVuSans-30" x="127.246094"/>
       <use xlink:href="#DejaVuSans-30" x="190.869141"/>
      </g>
     </g>
    </g>
    <g id="xtick_3">
     <g id="line2d_3">
      <g>
       <use xlink:href="#m1ef9f786f4" x="188.653211" y="307.584" style="stroke: #000000; stroke-width: 0.8"/>
      </g>
     </g>
     <g id="text_3">
      <!-- 7000 -->
      <g transform="translate(175.928211 322.182437)scale(0.1 -0.1)">
       <defs>
        <path id="DejaVuSans-37" d="M 525 4666 
L 3525 4666 
L 3525 4397 
L 1831 0 
L 1172 0 
L 2766 4134 
L 525 4134 
L 525 4666 
z
" transform="scale(0.015625)"/>
       </defs>
       <use xlink:href="#DejaVuSans-37"/>
       <use xlink:href="#DejaVuSans-30" x="63.623047"/>
       <use xlink:href="#DejaVuSans-30" x="127.246094"/>
       <use xlink:href="#DejaVuSans-30" x="190.869141"/>
      </g>
     </g>
    </g>
    <g id="xtick_4">
     <g id="line2d_4">
      <g>
       <use xlink:href="#m1ef9f786f4" x="254.179817" y="307.584" style="stroke: #000000; stroke-width: 0.8"/>
      </g>
     </g>
     <g id="text_4">
      <!-- 8000 -->
      <g transform="translate(241.454817 322.182437)scale(0.1 -0.1)">
       <defs>
        <path id="DejaVuSans-38" d="M 2034 2216 
Q 1584 2216 1326 1975 
Q 1069 1734 1069 1313 
Q 1069 891 1326 650 
Q 1584 409 2034 409 
Q 2484 409 2743 651 
Q 3003 894 3003 1313 
Q 3003 1734 2745 1975 
Q 2488 2216 2034 2216 
z
M 1403 2484 
Q 997 2584 770 2862 
Q 544 3141 544 3541 
Q 544 4100 942 4425 
Q 1341 4750 2034 4750 
Q 2731 4750 3128 4425 
Q 3525 4100 3525 3541 
Q 3525 3141 3298 2862 
Q 3072 2584 2669 2484 
Q 3125 2378 3379 2068 
Q 3634 1759 3634 1313 
Q 3634 634 3220 271 
Q 2806 -91 2034 -91 
Q 1263 -91 848 271 
Q 434 634 434 1313 
Q 434 1759 690 2068 
Q 947 2378 1403 2484 
z
M 1172 3481 
Q 1172 3119 1398 2916 
Q 1625 2713 2034 2713 
Q 2441 2713 2670 2916 
Q 2900 3119 2900 3481 
Q 2900 3844 2670 4047 
Q 2441 4250 2034 4250 
Q 1625 4250 1398 4047 
Q 1172 3844 1172 3481 
z
" transform="scale(0.015625)"/>
       </defs>
       <use xlink:href="#DejaVuSans-38"/>
       <use xlink:href="#DejaVuSans-30" x="63.623047"/>
       <use xlink:href="#DejaVuSans-30" x="127.246094"/>
       <use xlink:href="#DejaVuSans-30" x="190.869141"/>
      </g>
     </g>
    </g>
    <g id="xtick_5">
     <g id="line2d_5">
      <g>
       <use xlink:href="#m1ef9f786f4" x="319.706422" y="307.584" style="stroke: #000000; stroke-width: 0.8"/>
      </g>
     </g>
     <g id="text_5">
      <!-- 9000 -->
      <g transform="translate(306.981422 322.182437)scale(0.1 -0.1)">
       <defs>
        <path id="DejaVuSans-39" d="M 703 97 
L 703 672 
Q 941 559 1184 500 
Q 1428 441 1663 441 
Q 2288 441 2617 861 
Q 2947 1281 2994 2138 
Q 2813 1869 2534 1725 
Q 2256 1581 1919 1581 
Q 1219 1581 811 2004 
Q 403 2428 403 3163 
Q 403 3881 828 4315 
Q 1253 4750 1959 4750 
Q 2769 4750 3195 4129 
Q 3622 3509 3622 2328 
Q 3622 1225 3098 567 
Q 2575 -91 1691 -91 
Q 1453 -91 1209 -44 
Q 966 3 703 97 
z
M 1959 2075 
Q 2384 2075 2632 2365 
Q 2881 2656 2881 3163 
Q 2881 3666 2632 3958 
Q 2384 4250 1959 4250 
Q 1534 4250 1286 3958 
Q 1038 3666 1038 3163 
Q 1038 2656 1286 2365 
Q 1534 2075 1959 2075 
z
" transform="scale(0.015625)"/>
       </defs>
       <use xlink:href="#DejaVuSans-39"/>
       <use xlink:href="#DejaVuSans-30" x="63.623047"/>
       <use xlink:href="#DejaVuSans-30" x="127.246094"/>
       <use xlink:href="#DejaVuSans-30" x="190.869141"/>
      </g>
     </g>
    </g>
    <g id="xtick_6">
     <g id="line2d_6">
      <g>
       <use xlink:href="#m1ef9f786f4" x="385.233028" y="307.584" style="stroke: #000000; stroke-width: 0.8"/>
      </g>
     </g>
     <g id="text_6">
      <!-- 10000 -->
      <g transform="translate(369.326778 322.182437)scale(0.1 -0.1)">
       <defs>
        <path id="DejaVuSans-31" d="M 794 531 
L 1825 531 
L 1825 4091 
L 703 3866 
L 703 4441 
L 1819 4666 
L 2450 4666 
L 2450 531 
L 3481 531 
L 3481 0 
L 794 0 
L 794 531 
z
" transform="scale(0.015625)"/>
       </defs>
       <use xlink:href="#DejaVuSans-31"/>
       <use xlink:href="#DejaVuSans-30" x="63.623047"/>
       <use xlink:href="#DejaVuSans-30" x="127.246094"/>
       <use xlink:href="#DejaVuSans-30" x="190.869141"/>
       <use xlink:href="#DejaVuSans-30" x="254.492188"/>
      </g>
     </g>
    </g>
    <g id="text_7">
     <!-- Distance Driven: Miles per annum -->
     <g transform="translate(151.237344 335.860562)scale(0.1 -0.1)">
      <defs>
       <path id="DejaVuSans-44" d="M 1259 4147 
L 1259 519 
L 2022 519 
Q 2988 519 3436 956 
Q 3884 1394 3884 2338 
Q 3884 3275 3436 3711 
Q 2988 4147 2022 4147 
L 1259 4147 
z
M 628 4666 
L 1925 4666 
Q 3281 4666 3915 4102 
Q 4550 3538 4550 2338 
Q 4550 1131 3912 565 
Q 3275 0 1925 0 
L 628 0 
L 628 4666 
z
" transform="scale(0.015625)"/>
       <path id="DejaVuSans-69" d="M 603 3500 
L 1178 3500 
L 1178 0 
L 603 0 
L 603 3500 
z
M 603 4863 
L 1178 4863 
L 1178 4134 
L 603 4134 
L 603 4863 
z
" transform="scale(0.015625)"/>
       <path id="DejaVuSans-73" d="M 2834 3397 
L 2834 2853 
Q 2591 2978 2328 3040 
Q 2066 3103 1784 3103 
Q 1356 3103 1142 2972 
Q 928 2841 928 2578 
Q 928 2378 1081 2264 
Q 1234 2150 1697 2047 
L 1894 2003 
Q 2506 1872 2764 1633 
Q 3022 1394 3022 966 
Q 3022 478 2636 193 
Q 2250 -91 1575 -91 
Q 1294 -91 989 -36 
Q 684 19 347 128 
L 347 722 
Q 666 556 975 473 
Q 1284 391 1588 391 
Q 1994 391 2212 530 
Q 2431 669 2431 922 
Q 2431 1156 2273 1281 
Q 2116 1406 1581 1522 
L 1381 1569 
Q 847 1681 609 1914 
Q 372 2147 372 2553 
Q 372 3047 722 3315 
Q 1072 3584 1716 3584 
Q 2034 3584 2315 3537 
Q 2597 3491 2834 3397 
z
" transform="scale(0.015625)"/>
       <path id="DejaVuSans-74" d="M 1172 4494 
L 1172 3500 
L 2356 3500 
L 2356 3053 
L 1172 3053 
L 1172 1153 
Q 1172 725 1289 603 
Q 1406 481 1766 481 
L 2356 481 
L 2356 0 
L 1766 0 
Q 1100 0 847 248 
Q 594 497 594 1153 
L 594 3053 
L 172 3053 
L 172 3500 
L 594 3500 
L 594 4494 
L 1172 4494 
z
" transform="scale(0.015625)"/>
       <path id="DejaVuSans-61" d="M 2194 1759 
Q 1497 1759 1228 1600 
Q 959 1441 959 1056 
Q 959 750 1161 570 
Q 1363 391 1709 391 
Q 2188 391 2477 730 
Q 2766 1069 2766 1631 
L 2766 1759 
L 2194 1759 
z
M 3341 1997 
L 3341 0 
L 2766 0 
L 2766 531 
Q 2569 213 2275 61 
Q 1981 -91 1556 -91 
Q 1019 -91 701 211 
Q 384 513 384 1019 
Q 384 1609 779 1909 
Q 1175 2209 1959 2209 
L 2766 2209 
L 2766 2266 
Q 2766 2663 2505 2880 
Q 2244 3097 1772 3097 
Q 1472 3097 1187 3025 
Q 903 2953 641 2809 
L 641 3341 
Q 956 3463 1253 3523 
Q 1550 3584 1831 3584 
Q 2591 3584 2966 3190 
Q 3341 2797 3341 1997 
z
" transform="scale(0.015625)"/>
       <path id="DejaVuSans-6e" d="M 3513 2113 
L 3513 0 
L 2938 0 
L 2938 2094 
Q 2938 2591 2744 2837 
Q 2550 3084 2163 3084 
Q 1697 3084 1428 2787 
Q 1159 2491 1159 1978 
L 1159 0 
L 581 0 
L 581 3500 
L 1159 3500 
L 1159 2956 
Q 1366 3272 1645 3428 
Q 1925 3584 2291 3584 
Q 2894 3584 3203 3211 
Q 3513 2838 3513 2113 
z
" transform="scale(0.015625)"/>
       <path id="DejaVuSans-63" d="M 3122 3366 
L 3122 2828 
Q 2878 2963 2633 3030 
Q 2388 3097 2138 3097 
Q 1578 3097 1268 2742 
Q 959 2388 959 1747 
Q 959 1106 1268 751 
Q 1578 397 2138 397 
Q 2388 397 2633 464 
Q 2878 531 3122 666 
L 3122 134 
Q 2881 22 2623 -34 
Q 2366 -91 2075 -91 
Q 1284 -91 818 406 
Q 353 903 353 1747 
Q 353 2603 823 3093 
Q 1294 3584 2113 3584 
Q 2378 3584 2631 3529 
Q 2884 3475 3122 3366 
z
" transform="scale(0.015625)"/>
       <path id="DejaVuSans-65" d="M 3597 1894 
L 3597 1613 
L 953 1613 
Q 991 1019 1311 708 
Q 1631 397 2203 397 
Q 2534 397 2845 478 
Q 3156 559 3463 722 
L 3463 178 
Q 3153 47 2828 -22 
Q 2503 -91 2169 -91 
Q 1331 -91 842 396 
Q 353 884 353 1716 
Q 353 2575 817 3079 
Q 1281 3584 2069 3584 
Q 2775 3584 3186 3129 
Q 3597 2675 3597 1894 
z
M 3022 2063 
Q 3016 2534 2758 2815 
Q 2500 3097 2075 3097 
Q 1594 3097 1305 2825 
Q 1016 2553 972 2059 
L 3022 2063 
z
" transform="scale(0.015625)"/>
       <path id="DejaVuSans-20" transform="scale(0.015625)"/>
       <path id="DejaVuSans-72" d="M 2631 2963 
Q 2534 3019 2420 3045 
Q 2306 3072 2169 3072 
Q 1681 3072 1420 2755 
Q 1159 2438 1159 1844 
L 1159 0 
L 581 0 
L 581 3500 
L 1159 3500 
L 1159 2956 
Q 1341 3275 1631 3429 
Q 1922 3584 2338 3584 
Q 2397 3584 2469 3576 
Q 2541 3569 2628 3553 
L 2631 2963 
z
" transform="scale(0.015625)"/>
       <path id="DejaVuSans-76" d="M 191 3500 
L 800 3500 
L 1894 563 
L 2988 3500 
L 3597 3500 
L 2284 0 
L 1503 0 
L 191 3500 
z
" transform="scale(0.015625)"/>
       <path id="DejaVuSans-3a" d="M 750 794 
L 1409 794 
L 1409 0 
L 750 0 
L 750 794 
z
M 750 3309 
L 1409 3309 
L 1409 2516 
L 750 2516 
L 750 3309 
z
" transform="scale(0.015625)"/>
       <path id="DejaVuSans-4d" d="M 628 4666 
L 1569 4666 
L 2759 1491 
L 3956 4666 
L 4897 4666 
L 4897 0 
L 4281 0 
L 4281 4097 
L 3078 897 
L 2444 897 
L 1241 4097 
L 1241 0 
L 628 0 
L 628 4666 
z
" transform="scale(0.015625)"/>
       <path id="DejaVuSans-6c" d="M 603 4863 
L 1178 4863 
L 1178 0 
L 603 0 
L 603 4863 
z
" transform="scale(0.015625)"/>
       <path id="DejaVuSans-70" d="M 1159 525 
L 1159 -1331 
L 581 -1331 
L 581 3500 
L 1159 3500 
L 1159 2969 
Q 1341 3281 1617 3432 
Q 1894 3584 2278 3584 
Q 2916 3584 3314 3078 
Q 3713 2572 3713 1747 
Q 3713 922 3314 415 
Q 2916 -91 2278 -91 
Q 1894 -91 1617 61 
Q 1341 213 1159 525 
z
M 3116 1747 
Q 3116 2381 2855 2742 
Q 2594 3103 2138 3103 
Q 1681 3103 1420 2742 
Q 1159 2381 1159 1747 
Q 1159 1113 1420 752 
Q 1681 391 2138 391 
Q 2594 391 2855 752 
Q 3116 1113 3116 1747 
z
" transform="scale(0.015625)"/>
       <path id="DejaVuSans-75" d="M 544 1381 
L 544 3500 
L 1119 3500 
L 1119 1403 
Q 1119 906 1312 657 
Q 1506 409 1894 409 
Q 2359 409 2629 706 
Q 2900 1003 2900 1516 
L 2900 3500 
L 3475 3500 
L 3475 0 
L 2900 0 
L 2900 538 
Q 2691 219 2414 64 
Q 2138 -91 1772 -91 
Q 1169 -91 856 284 
Q 544 659 544 1381 
z
M 1991 3584 
L 1991 3584 
z
" transform="scale(0.015625)"/>
       <path id="DejaVuSans-6d" d="M 3328 2828 
Q 3544 3216 3844 3400 
Q 4144 3584 4550 3584 
Q 5097 3584 5394 3201 
Q 5691 2819 5691 2113 
L 5691 0 
L 5113 0 
L 5113 2094 
Q 5113 2597 4934 2840 
Q 4756 3084 4391 3084 
Q 3944 3084 3684 2787 
Q 3425 2491 3425 1978 
L 3425 0 
L 2847 0 
L 2847 2094 
Q 2847 2600 2669 2842 
Q 2491 3084 2119 3084 
Q 1678 3084 1418 2786 
Q 1159 2488 1159 1978 
L 1159 0 
L 581 0 
L 581 3500 
L 1159 3500 
L 1159 2956 
Q 1356 3278 1631 3431 
Q 1906 3584 2284 3584 
Q 2666 3584 2933 3390 
Q 3200 3197 3328 2828 
z
" transform="scale(0.015625)"/>
      </defs>
      <use xlink:href="#DejaVuSans-44"/>
      <use xlink:href="#DejaVuSans-69" x="77.001953"/>
      <use xlink:href="#DejaVuSans-73" x="104.785156"/>
      <use xlink:href="#DejaVuSans-74" x="156.884766"/>
      <use xlink:href="#DejaVuSans-61" x="196.09375"/>
      <use xlink:href="#DejaVuSans-6e" x="257.373047"/>
      <use xlink:href="#DejaVuSans-63" x="320.751953"/>
      <use xlink:href="#DejaVuSans-65" x="375.732422"/>
      <use xlink:href="#DejaVuSans-20" x="437.255859"/>
      <use xlink:href="#DejaVuSans-44" x="469.042969"/>
      <use xlink:href="#DejaVuSans-72" x="546.044922"/>
      <use xlink:href="#DejaVuSans-69" x="587.158203"/>
      <use xlink:href="#DejaVuSans-76" x="614.941406"/>
      <use xlink:href="#DejaVuSans-65" x="674.121094"/>
      <use xlink:href="#DejaVuSans-6e" x="735.644531"/>
      <use xlink:href="#DejaVuSans-3a" x="799.023438"/>
      <use xlink:href="#DejaVuSans-20" x="832.714844"/>
      <use xlink:href="#DejaVuSans-4d" x="864.501953"/>
      <use xlink:href="#DejaVuSans-69" x="950.78125"/>
      <use xlink:href="#DejaVuSans-6c" x="978.564453"/>
      <use xlink:href="#DejaVuSans-65" x="1006.347656"/>
      <use xlink:href="#DejaVuSans-73" x="1067.871094"/>
      <use xlink:href="#DejaVuSans-20" x="1119.970703"/>
      <use xlink:href="#DejaVuSans-70" x="1151.757812"/>
      <use xlink:href="#DejaVuSans-65" x="1215.234375"/>
      <use xlink:href="#DejaVuSans-72" x="1276.757812"/>
      <use xlink:href="#DejaVuSans-20" x="1317.871094"/>
      <use xlink:href="#DejaVuSans-61" x="1349.658203"/>
      <use xlink:href="#DejaVuSans-6e" x="1410.9375"/>
      <use xlink:href="#DejaVuSans-6e" x="1474.316406"/>
      <use xlink:href="#DejaVuSans-75" x="1537.695312"/>
      <use xlink:href="#DejaVuSans-6d" x="1601.074219"/>
     </g>
    </g>
   </g>
   <g id="matplotlib.axis_2">
    <g id="ytick_1">
     <g id="line2d_7">
      <defs>
       <path id="med3a02e229" d="M 0 0 
L -3.5 0 
" style="stroke: #000000; stroke-width: 0.8"/>
      </defs>
      <g>
       <use xlink:href="#med3a02e229" x="57.6" y="291.308037" style="stroke: #000000; stroke-width: 0.8"/>
      </g>
     </g>
     <g id="text_8">
      <!-- 2000 -->
      <g transform="translate(25.15 295.107255)scale(0.1 -0.1)">
       <defs>
        <path id="DejaVuSans-32" d="M 1228 531 
L 3431 531 
L 3431 0 
L 469 0 
L 469 531 
Q 828 903 1448 1529 
Q 2069 2156 2228 2338 
Q 2531 2678 2651 2914 
Q 2772 3150 2772 3378 
Q 2772 3750 2511 3984 
Q 2250 4219 1831 4219 
Q 1534 4219 1204 4116 
Q 875 4013 500 3803 
L 500 4441 
Q 881 4594 1212 4672 
Q 1544 4750 1819 4750 
Q 2544 4750 2975 4387 
Q 3406 4025 3406 3419 
Q 3406 3131 3298 2873 
Q 3191 2616 2906 2266 
Q 2828 2175 2409 1742 
Q 1991 1309 1228 531 
z
" transform="scale(0.015625)"/>
       </defs>
       <use xlink:href="#DejaVuSans-32"/>
       <use xlink:href="#DejaVuSans-30" x="63.623047"/>
       <use xlink:href="#DejaVuSans-30" x="127.246094"/>
       <use xlink:href="#DejaVuSans-30" x="190.869141"/>
      </g>
     </g>
    </g>
    <g id="ytick_2">
     <g id="line2d_8">
      <g>
       <use xlink:href="#med3a02e229" x="57.6" y="258.75611" style="stroke: #000000; stroke-width: 0.8"/>
      </g>
     </g>
     <g id="text_9">
      <!-- 3000 -->
      <g transform="translate(25.15 262.555329)scale(0.1 -0.1)">
       <defs>
        <path id="DejaVuSans-33" d="M 2597 2516 
Q 3050 2419 3304 2112 
Q 3559 1806 3559 1356 
Q 3559 666 3084 287 
Q 2609 -91 1734 -91 
Q 1441 -91 1130 -33 
Q 819 25 488 141 
L 488 750 
Q 750 597 1062 519 
Q 1375 441 1716 441 
Q 2309 441 2620 675 
Q 2931 909 2931 1356 
Q 2931 1769 2642 2001 
Q 2353 2234 1838 2234 
L 1294 2234 
L 1294 2753 
L 1863 2753 
Q 2328 2753 2575 2939 
Q 2822 3125 2822 3475 
Q 2822 3834 2567 4026 
Q 2313 4219 1838 4219 
Q 1578 4219 1281 4162 
Q 984 4106 628 3988 
L 628 4550 
Q 988 4650 1302 4700 
Q 1616 4750 1894 4750 
Q 2613 4750 3031 4423 
Q 3450 4097 3450 3541 
Q 3450 3153 3228 2886 
Q 3006 2619 2597 2516 
z
" transform="scale(0.015625)"/>
       </defs>
       <use xlink:href="#DejaVuSans-33"/>
       <use xlink:href="#DejaVuSans-30" x="63.623047"/>
       <use xlink:href="#DejaVuSans-30" x="127.246094"/>
       <use xlink:href="#DejaVuSans-30" x="190.869141"/>
      </g>
     </g>
    </g>
    <g id="ytick_3">
     <g id="line2d_9">
      <g>
       <use xlink:href="#med3a02e229" x="57.6" y="226.204183" style="stroke: #000000; stroke-width: 0.8"/>
      </g>
     </g>
     <g id="text_10">
      <!-- 4000 -->
      <g transform="translate(25.15 230.003402)scale(0.1 -0.1)">
       <defs>
        <path id="DejaVuSans-34" d="M 2419 4116 
L 825 1625 
L 2419 1625 
L 2419 4116 
z
M 2253 4666 
L 3047 4666 
L 3047 1625 
L 3713 1625 
L 3713 1100 
L 3047 1100 
L 3047 0 
L 2419 0 
L 2419 1100 
L 313 1100 
L 313 1709 
L 2253 4666 
z
" transform="scale(0.015625)"/>
       </defs>
       <use xlink:href="#DejaVuSans-34"/>
       <use xlink:href="#DejaVuSans-30" x="63.623047"/>
       <use xlink:href="#DejaVuSans-30" x="127.246094"/>
       <use xlink:href="#DejaVuSans-30" x="190.869141"/>
      </g>
     </g>
    </g>
    <g id="ytick_4">
     <g id="line2d_10">
      <g>
       <use xlink:href="#med3a02e229" x="57.6" y="193.652257" style="stroke: #000000; stroke-width: 0.8"/>
      </g>
     </g>
     <g id="text_11">
      <!-- 5000 -->
      <g transform="translate(25.15 197.451476)scale(0.1 -0.1)">
       <use xlink:href="#DejaVuSans-35"/>
       <use xlink:href="#DejaVuSans-30" x="63.623047"/>
       <use xlink:href="#DejaVuSans-30" x="127.246094"/>
       <use xlink:href="#DejaVuSans-30" x="190.869141"/>
      </g>
     </g>
    </g>
    <g id="ytick_5">
     <g id="line2d_11">
      <g>
       <use xlink:href="#med3a02e229" x="57.6" y="161.10033" style="stroke: #000000; stroke-width: 0.8"/>
      </g>
     </g>
     <g id="text_12">
      <!-- 6000 -->
      <g transform="translate(25.15 164.899549)scale(0.1 -0.1)">
       <use xlink:href="#DejaVuSans-36"/>
       <use xlink:href="#DejaVuSans-30" x="63.623047"/>
       <use xlink:href="#DejaVuSans-30" x="127.246094"/>
       <use xlink:href="#DejaVuSans-30" x="190.869141"/>
      </g>
     </g>
    </g>
    <g id="ytick_6">
     <g id="line2d_12">
      <g>
       <use xlink:href="#med3a02e229" x="57.6" y="128.548404" style="stroke: #000000; stroke-width: 0.8"/>
      </g>
     </g>
     <g id="text_13">
      <!-- 7000 -->
      <g transform="translate(25.15 132.347622)scale(0.1 -0.1)">
       <use xlink:href="#DejaVuSans-37"/>
       <use xlink:href="#DejaVuSans-30" x="63.623047"/>
       <use xlink:href="#DejaVuSans-30" x="127.246094"/>
       <use xlink:href="#DejaVuSans-30" x="190.869141"/>
      </g>
     </g>
    </g>
    <g id="ytick_7">
     <g id="line2d_13">
      <g>
       <use xlink:href="#med3a02e229" x="57.6" y="95.996477" style="stroke: #000000; stroke-width: 0.8"/>
      </g>
     </g>
     <g id="text_14">
      <!-- 8000 -->
      <g transform="translate(25.15 99.795696)scale(0.1 -0.1)">
       <use xlink:href="#DejaVuSans-38"/>
       <use xlink:href="#DejaVuSans-30" x="63.623047"/>
       <use xlink:href="#DejaVuSans-30" x="127.246094"/>
       <use xlink:href="#DejaVuSans-30" x="190.869141"/>
      </g>
     </g>
    </g>
    <g id="ytick_8">
     <g id="line2d_14">
      <g>
       <use xlink:href="#med3a02e229" x="57.6" y="63.44455" style="stroke: #000000; stroke-width: 0.8"/>
      </g>
     </g>
     <g id="text_15">
      <!-- 9000 -->
      <g transform="translate(25.15 67.243769)scale(0.1 -0.1)">
       <use xlink:href="#DejaVuSans-39"/>
       <use xlink:href="#DejaVuSans-30" x="63.623047"/>
       <use xlink:href="#DejaVuSans-30" x="127.246094"/>
       <use xlink:href="#DejaVuSans-30" x="190.869141"/>
      </g>
     </g>
    </g>
    <g id="text_16">
     <!-- Household power use: kWh per annum -->
     <g transform="translate(19.070312 271.678)rotate(-90)scale(0.1 -0.1)">
      <defs>
       <path id="DejaVuSans-48" d="M 628 4666 
L 1259 4666 
L 1259 2753 
L 3553 2753 
L 3553 4666 
L 4184 4666 
L 4184 0 
L 3553 0 
L 3553 2222 
L 1259 2222 
L 1259 0 
L 628 0 
L 628 4666 
z
" transform="scale(0.015625)"/>
       <path id="DejaVuSans-6f" d="M 1959 3097 
Q 1497 3097 1228 2736 
Q 959 2375 959 1747 
Q 959 1119 1226 758 
Q 1494 397 1959 397 
Q 2419 397 2687 759 
Q 2956 1122 2956 1747 
Q 2956 2369 2687 2733 
Q 2419 3097 1959 3097 
z
M 1959 3584 
Q 2709 3584 3137 3096 
Q 3566 2609 3566 1747 
Q 3566 888 3137 398 
Q 2709 -91 1959 -91 
Q 1206 -91 779 398 
Q 353 888 353 1747 
Q 353 2609 779 3096 
Q 1206 3584 1959 3584 
z
" transform="scale(0.015625)"/>
       <path id="DejaVuSans-68" d="M 3513 2113 
L 3513 0 
L 2938 0 
L 2938 2094 
Q 2938 2591 2744 2837 
Q 2550 3084 2163 3084 
Q 1697 3084 1428 2787 
Q 1159 2491 1159 1978 
L 1159 0 
L 581 0 
L 581 4863 
L 1159 4863 
L 1159 2956 
Q 1366 3272 1645 3428 
Q 1925 3584 2291 3584 
Q 2894 3584 3203 3211 
Q 3513 2838 3513 2113 
z
" transform="scale(0.015625)"/>
       <path id="DejaVuSans-64" d="M 2906 2969 
L 2906 4863 
L 3481 4863 
L 3481 0 
L 2906 0 
L 2906 525 
Q 2725 213 2448 61 
Q 2172 -91 1784 -91 
Q 1150 -91 751 415 
Q 353 922 353 1747 
Q 353 2572 751 3078 
Q 1150 3584 1784 3584 
Q 2172 3584 2448 3432 
Q 2725 3281 2906 2969 
z
M 947 1747 
Q 947 1113 1208 752 
Q 1469 391 1925 391 
Q 2381 391 2643 752 
Q 2906 1113 2906 1747 
Q 2906 2381 2643 2742 
Q 2381 3103 1925 3103 
Q 1469 3103 1208 2742 
Q 947 2381 947 1747 
z
" transform="scale(0.015625)"/>
       <path id="DejaVuSans-77" d="M 269 3500 
L 844 3500 
L 1563 769 
L 2278 3500 
L 2956 3500 
L 3675 769 
L 4391 3500 
L 4966 3500 
L 4050 0 
L 3372 0 
L 2619 2869 
L 1863 0 
L 1184 0 
L 269 3500 
z
" transform="scale(0.015625)"/>
       <path id="DejaVuSans-6b" d="M 581 4863 
L 1159 4863 
L 1159 1991 
L 2875 3500 
L 3609 3500 
L 1753 1863 
L 3688 0 
L 2938 0 
L 1159 1709 
L 1159 0 
L 581 0 
L 581 4863 
z
" transform="scale(0.015625)"/>
       <path id="DejaVuSans-57" d="M 213 4666 
L 850 4666 
L 1831 722 
L 2809 4666 
L 3519 4666 
L 4500 722 
L 5478 4666 
L 6119 4666 
L 4947 0 
L 4153 0 
L 3169 4050 
L 2175 0 
L 1381 0 
L 213 4666 
z
" transform="scale(0.015625)"/>
      </defs>
      <use xlink:href="#DejaVuSans-48"/>
      <use xlink:href="#DejaVuSans-6f" x="75.195312"/>
      <use xlink:href="#DejaVuSans-75" x="136.376953"/>
      <use xlink:href="#DejaVuSans-73" x="199.755859"/>
      <use xlink:href="#DejaVuSans-65" x="251.855469"/>
      <use xlink:href="#DejaVuSans-68" x="313.378906"/>
      <use xlink:href="#DejaVuSans-6f" x="376.757812"/>
      <use xlink:href="#DejaVuSans-6c" x="437.939453"/>
      <use xlink:href="#DejaVuSans-64" x="465.722656"/>
      <use xlink:href="#DejaVuSans-20" x="529.199219"/>
      <use xlink:href="#DejaVuSans-70" x="560.986328"/>
      <use xlink:href="#DejaVuSans-6f" x="624.462891"/>
      <use xlink:href="#DejaVuSans-77" x="685.644531"/>
      <use xlink:href="#DejaVuSans-65" x="767.431641"/>
      <use xlink:href="#DejaVuSans-72" x="828.955078"/>
      <use xlink:href="#DejaVuSans-20" x="870.068359"/>
      <use xlink:href="#DejaVuSans-75" x="901.855469"/>
      <use xlink:href="#DejaVuSans-73" x="965.234375"/>
      <use xlink:href="#DejaVuSans-65" x="1017.333984"/>
      <use xlink:href="#DejaVuSans-3a" x="1078.857422"/>
      <use xlink:href="#DejaVuSans-20" x="1112.548828"/>
      <use xlink:href="#DejaVuSans-6b" x="1144.335938"/>
      <use xlink:href="#DejaVuSans-57" x="1202.246094"/>
      <use xlink:href="#DejaVuSans-68" x="1301.123047"/>
      <use xlink:href="#DejaVuSans-20" x="1364.501953"/>
      <use xlink:href="#DejaVuSans-70" x="1396.289062"/>
      <use xlink:href="#DejaVuSans-65" x="1459.765625"/>
      <use xlink:href="#DejaVuSans-72" x="1521.289062"/>
      <use xlink:href="#DejaVuSans-20" x="1562.402344"/>
      <use xlink:href="#DejaVuSans-61" x="1594.189453"/>
      <use xlink:href="#DejaVuSans-6e" x="1655.46875"/>
      <use xlink:href="#DejaVuSans-6e" x="1718.847656"/>
      <use xlink:href="#DejaVuSans-75" x="1782.226562"/>
      <use xlink:href="#DejaVuSans-6d" x="1845.605469"/>
     </g>
    </g>
   </g>
   <g id="PathCollection_2"/>
   <g id="PathCollection_3">
    <path d="M 187.330696 41.472 
L 185.376881 42.135733 
L 182.10055 43.248739 
L 180.144021 43.913394 
L 178.82422 44.361746 
L 175.54789 45.474752 
L 172.957347 46.354789 
L 172.27156 46.587759 
L 168.995229 47.700765 
L 165.770672 48.796183 
L 165.718899 48.813771 
L 162.442569 49.926778 
L 160.657538 50.533173 
" clip-path="url(#pafc8bd564e)" style="fill: none; stroke-dasharray: 5.55,2.4; stroke-dashoffset: 0; stroke: #000000; stroke-width: 1.5"/>
    <path d="M 127.76376 61.707561 
L 126.402936 62.169848 
L 123.126606 63.282855 
L 122.650625 63.44455 
L 119.850275 64.395861 
L 116.573945 65.508867 
L 115.463951 65.885945 
L 113.297615 66.621874 
L 110.021284 67.73488 
L 108.277276 68.327339 
L 106.744954 68.847887 
L 103.468624 69.960893 
L 101.090602 70.768734 
L 100.192294 71.073899 
L 96.915963 72.186906 
L 93.903927 73.210128 
L 93.639633 73.299912 
L 90.363303 74.412919 
L 87.086972 75.525925 
L 86.717253 75.651523 
L 83.810642 76.638931 
L 80.534312 77.751938 
L 79.530578 78.092917 
L 77.257982 78.864944 
L 73.981651 79.977951 
L 72.343904 80.534312 
L 70.705321 81.090957 
L 67.428991 82.203963 
L 65.157229 82.975706 
L 64.152661 83.31697 
L 60.87633 84.429976 
L 57.970555 85.417101 
L 57.6 85.542983 
" clip-path="url(#pafc8bd564e)" style="fill: none; stroke-dasharray: 5.55,2.4; stroke-dashoffset: 0; stroke: #000000; stroke-width: 1.5"/>
   </g>
   <g id="PathCollection_4">
    <path d="M 316.364854 50.827062 
L 315.156427 51.237578 
L 313.153761 51.917906 
L 309.877431 53.030913 
L 307.969753 53.678972 
L 306.601101 54.143919 
L 303.324771 55.256925 
L 300.783078 56.120367 
L 300.04844 56.369932 
L 296.77211 57.482938 
L 293.596404 58.561761 
L 293.49578 58.595945 
L 290.21945 59.708951 
L 286.943119 60.821957 
L 286.409729 61.003156 
L 283.666789 61.934964 
L 280.390459 63.04797 
L 279.223055 63.44455 
L 277.114128 64.160977 
L 273.837798 65.273983 
L 272.03638 65.885945 
L 270.561468 66.386989 
L 267.285138 67.499996 
L 264.849706 68.327339 
L 264.008807 68.613002 
L 260.732477 69.726009 
L 257.663031 70.768734 
L 257.456147 70.839015 
L 254.179817 71.952021 
L 250.903486 73.065028 
L 250.476357 73.210128 
L 247.627156 74.178034 
L 244.350826 75.29104 
L 243.289682 75.651523 
L 241.074495 76.404047 
L 237.798165 77.517053 
L 236.103008 78.092917 
L 234.521835 78.63006 
L 231.245505 79.743066 
L 228.916333 80.534312 
L 227.969174 80.856072 
L 224.692844 81.969079 
L 221.729659 82.975706 
L 221.416514 83.082085 
L 218.140183 84.195092 
L 214.863853 85.308098 
L 214.542984 85.417101 
L 211.587523 86.421104 
L 208.311193 87.534111 
L 207.35631 87.858495 
L 205.034862 88.647117 
L 201.758532 89.760124 
L 200.169635 90.29989 
L 198.482202 90.87313 
L 195.205872 91.986136 
L 192.982961 92.741284 
L 191.929541 93.099143 
L 188.653211 94.212149 
L 185.796286 95.182679 
L 185.376881 95.325156 
L 182.10055 96.438162 
L 178.82422 97.551168 
L 178.609612 97.624073 
L 175.54789 98.664175 
L 172.27156 99.777181 
L 171.422937 100.065468 
L 168.995229 100.890188 
L 165.718899 102.003194 
L 164.236263 102.506862 
L 162.442569 103.1162 
L 159.166239 104.229207 
L 157.049588 104.948257 
L 155.889908 105.342213 
L 152.613578 106.45522 
L 149.862914 107.389651 
L 149.337248 107.568226 
L 146.060917 108.681232 
L 142.784587 109.794239 
L 142.676239 109.831046 
L 139.508257 110.907245 
L 136.231927 112.020252 
L 135.489565 112.27244 
L 132.955596 113.133258 
L 129.679266 114.246264 
L 128.30289 114.713835 
L 126.402936 115.359271 
L 123.126606 116.472277 
L 121.116216 117.155229 
L 119.850275 117.585284 
L 116.573945 118.69829 
L 113.929541 119.596624 
L 113.297615 119.811296 
L 110.021284 120.924303 
L 106.744954 122.037309 
L 106.742866 122.038018 
L 103.468624 123.150316 
L 100.192294 124.263322 
L 99.556192 124.479413 
L 96.915963 125.376328 
L 93.639633 126.489335 
L 92.369517 126.920807 
L 90.363303 127.602341 
L 87.086972 128.715348 
L 85.182843 129.362202 
L 83.810642 129.828354 
L 80.534312 130.94136 
L 77.996168 131.803596 
L 77.257982 132.054367 
L 73.981651 133.167373 
L 70.809494 134.244991 
L 70.705321 134.28038 
L 67.428991 135.393386 
L 64.152661 136.506392 
L 63.622819 136.686385 
L 60.87633 137.619399 
L 57.6 138.732405 
" clip-path="url(#pafc8bd564e)" style="fill: none; stroke-dasharray: 5.55,2.4; stroke-dashoffset: 0; stroke: #000000; stroke-width: 1.5"/>
   </g>
   <g id="PathCollection_5">
    <path d="M 414.72 70.60413 
L 414.235461 70.768734 
L 411.44367 71.717137 
L 408.167339 72.830143 
L 407.048786 73.210128 
L 404.891009 73.94315 
L 401.614679 75.056156 
L 399.862112 75.651523 
L 398.338349 76.169162 
L 395.062018 77.282169 
L 392.675437 78.092917 
L 391.785688 78.395175 
L 388.509358 79.508182 
L 385.488762 80.534312 
L 385.233028 80.621188 
L 381.956697 81.734194 
L 378.680367 82.847201 
L 378.302088 82.975706 
L 375.404037 83.960207 
L 372.127706 85.073214 
L 371.115413 85.417101 
L 368.851376 86.18622 
L 365.575046 87.299226 
L 363.928739 87.858495 
L 362.298716 88.412233 
L 359.022385 89.525239 
L 356.742064 90.29989 
L 355.746055 90.638246 
L 352.469725 91.751252 
L 349.55539 92.741284 
L 349.193394 92.864258 
L 345.917064 93.977265 
L 342.640734 95.090271 
L 342.368715 95.182679 
L 339.364404 96.203278 
L 336.088073 97.316284 
L 335.182041 97.624073 
L 332.811743 98.42929 
L 329.535413 99.542297 
L 327.995366 100.065468 
L 326.259083 100.655303 
L 322.982752 101.76831 
L 320.808692 102.506862 
L 319.706422 102.881316 
L 316.430092 103.994322 
L 313.622017 104.948257 
L 313.153761 105.107329 
L 309.877431 106.220335 
L 306.601101 107.333342 
L 306.435343 107.389651 
L 303.324771 108.446348 
L 300.04844 109.559354 
L 299.248668 109.831046 
L 296.77211 110.672361 
L 293.49578 111.785367 
L 292.061994 112.27244 
L 290.21945 112.898373 
L 286.943119 114.01138 
L 284.875319 114.713835 
L 283.666789 115.124386 
L 280.390459 116.237393 
L 277.688645 117.155229 
L 277.114128 117.350399 
L 273.837798 118.463405 
L 270.561468 119.576412 
L 270.50197 119.596624 
L 267.285138 120.689418 
L 264.008807 121.802425 
L 263.315296 122.038018 
L 260.732477 122.915431 
L 257.456147 124.028437 
L 256.128621 124.479413 
L 254.179817 125.141444 
L 250.903486 126.25445 
L 248.941947 126.920807 
L 247.627156 127.367457 
L 244.350826 128.480463 
L 241.755272 129.362202 
L 241.074495 129.593469 
L 237.798165 130.706476 
L 234.568598 131.803596 
L 234.521835 131.819482 
L 231.245505 132.932489 
L 227.969174 134.045495 
L 227.381923 134.244991 
L 224.692844 135.158501 
L 221.416514 136.271508 
L 220.195249 136.686385 
L 218.140183 137.384514 
L 214.863853 138.497521 
L 213.008574 139.12778 
L 211.587523 139.610527 
L 208.311193 140.723533 
L 205.8219 141.569174 
L 205.034862 141.83654 
L 201.758532 142.949546 
L 198.635225 144.010569 
L 198.482202 144.062553 
L 195.205872 145.175559 
L 191.929541 146.288565 
L 191.448551 146.451963 
L 188.653211 147.401572 
L 185.376881 148.514578 
L 184.261876 148.893358 
L 182.10055 149.627585 
L 178.82422 150.740591 
L 177.075202 151.334752 
L 175.54789 151.853597 
L 172.27156 152.966604 
L 169.888527 153.776147 
L 168.995229 154.07961 
L 165.718899 155.192617 
L 162.701853 156.217541 
L 162.442569 156.305623 
L 159.166239 157.418629 
L 155.889908 158.531636 
L 155.515178 158.658936 
L 152.613578 159.644642 
L 149.337248 160.757649 
L 148.328504 161.10033 
L 146.060917 161.870655 
L 142.784587 162.983661 
L 141.141829 163.541725 
L 139.508257 164.096668 
L 136.231927 165.209674 
L 133.955155 165.983119 
L 133.020834 166.300519 
" clip-path="url(#pafc8bd564e)" style="fill: none; stroke-dasharray: 5.55,2.4; stroke-dashoffset: 0; stroke: #000000; stroke-width: 1.5"/>
    <path d="M 100.127056 177.474907 
L 98.021782 178.190092 
L 96.915963 178.565751 
L 93.639633 179.678757 
L 90.835108 180.631486 
L 90.363303 180.791764 
L 87.086972 181.90477 
L 83.810642 183.017776 
L 83.648433 183.072881 
L 80.534312 184.130783 
L 77.257982 185.243789 
L 76.461759 185.514275 
L 73.981651 186.356796 
L 70.705321 187.469802 
L 69.275084 187.95567 
L 67.428991 188.582808 
L 64.152661 189.695815 
L 62.08841 190.397064 
L 60.87633 190.808821 
L 57.6 191.921828 
" clip-path="url(#pafc8bd564e)" style="fill: none; stroke-dasharray: 5.55,2.4; stroke-dashoffset: 0; stroke: #000000; stroke-width: 1.5"/>
   </g>
   <g id="PathCollection_6">
    <path d="M 414.72 123.793553 
L 124.481283 222.390923 
L 124.481283 222.390923 
" clip-path="url(#pafc8bd564e)" style="fill: none; stroke: #000000; stroke-width: 1.5"/>
    <path d="M 111.613509 226.762251 
L 110.860721 227.017982 
L 110.021284 227.303148 
L 106.744954 228.416154 
L 103.674047 229.459376 
L 103.468624 229.529161 
L 100.192294 230.642167 
L 96.915963 231.755173 
L 96.487372 231.900771 
L 93.639633 232.86818 
L 90.363303 233.981186 
L 89.300698 234.342165 
L 87.086972 235.094193 
L 83.810642 236.207199 
L 82.114023 236.78356 
L 80.534312 237.320205 
L 77.257982 238.433212 
L 74.927349 239.224954 
L 73.981651 239.546218 
L 70.705321 240.659225 
L 67.740674 241.666349 
L 67.428991 241.772231 
L 64.152661 242.885237 
L 60.87633 243.998244 
L 60.554 244.107743 
L 57.6 245.11125 
" clip-path="url(#pafc8bd564e)" style="fill: none; stroke: #000000; stroke-width: 1.5"/>
   </g>
   <g id="PathCollection_7">
    <path d="M 414.72 176.982976 
L 106.12393 281.816546 
L 106.12393 281.816546 
" clip-path="url(#pafc8bd564e)" style="fill: none; stroke: #000000; stroke-width: 1.5"/>
    <path d="M 81.155336 290.298659 
L 80.579614 290.494239 
L 80.534312 290.509628 
L 77.257982 291.622634 
L 73.981651 292.735641 
L 73.392939 292.935633 
L 70.705321 293.848647 
L 67.428991 294.961654 
L 66.206265 295.377028 
L 64.152661 296.07466 
L 60.87633 297.187666 
L 59.01959 297.818422 
L 57.6 298.300673 
" clip-path="url(#pafc8bd564e)" style="fill: none; stroke: #000000; stroke-width: 1.5"/>
   </g>
   <g id="PathCollection_8">
    <path d="M 414.72 230.172398 
L 411.44367 231.285404 
L 409.632231 231.900771 
L 408.167339 232.398411 
L 404.891009 233.511417 
L 402.445557 234.342165 
L 401.614679 234.624424 
L 398.338349 235.73743 
L 395.258882 236.78356 
L 395.062018 236.850436 
L 391.785688 237.963443 
L 388.509358 239.076449 
L 388.072208 239.224954 
L 385.233028 240.189456 
L 381.956697 241.302462 
L 380.885533 241.666349 
L 378.680367 242.415468 
L 375.404037 243.528475 
L 373.698859 244.107743 
L 372.127706 244.641481 
L 368.851376 245.754488 
L 366.512184 246.549138 
L 365.575046 246.867494 
L 362.298716 247.9805 
L 359.32551 248.990532 
L 359.022385 249.093507 
L 355.746055 250.206513 
L 352.469725 251.31952 
L 352.138835 251.431927 
L 349.193394 252.432526 
L 345.917064 253.545532 
L 344.952161 253.873321 
L 342.640734 254.658539 
L 339.364404 255.771545 
L 337.765486 256.314716 
L 336.088073 256.884552 
L 332.811743 257.997558 
L 330.578812 258.75611 
L 329.535413 259.110564 
L 326.259083 260.223571 
L 323.392137 261.197505 
L 322.982752 261.336577 
L 319.706422 262.449584 
L 316.430092 263.56259 
L 316.205462 263.638899 
L 313.153761 264.675596 
L 309.877431 265.788603 
L 309.018788 266.080294 
L 306.601101 266.901609 
L 303.324771 268.014616 
L 301.832113 268.521688 
L 300.04844 269.127622 
L 296.77211 270.240628 
L 294.645439 270.963083 
L 293.49578 271.353635 
L 290.21945 272.466641 
L 287.458764 273.404477 
L 286.943119 273.579648 
L 283.666789 274.692654 
L 280.390459 275.80566 
L 280.27209 275.845872 
L 277.114128 276.918667 
L 273.837798 278.031673 
L 273.085415 278.287266 
L 270.561468 279.14468 
L 267.285138 280.257686 
L 265.898741 280.728661 
L 264.008807 281.370692 
L 260.732477 282.483699 
L 258.712066 283.170055 
L 257.456147 283.596705 
L 254.179817 284.709712 
L 251.525392 285.61145 
L 250.903486 285.822718 
L 247.627156 286.935724 
L 244.350826 288.048731 
L 244.338717 288.052844 
L 241.074495 289.161737 
L 237.798165 290.274744 
L 237.152043 290.494239 
L 234.521835 291.38775 
L 231.245505 292.500756 
L 229.965368 292.935633 
L 227.969174 293.613763 
L 224.692844 294.726769 
L 222.778694 295.377028 
L 221.416514 295.839775 
L 220.889642 296.01876 
" clip-path="url(#pafc8bd564e)" style="fill: none; stroke: #000000; stroke-width: 1.5"/>
    <path d="M 195.921048 304.500873 
L 195.205872 304.743827 
L 194.031996 305.142606 
L 191.929541 305.856833 
L 188.653211 306.969839 
L 186.845321 307.584 
" clip-path="url(#pafc8bd564e)" style="fill: none; stroke: #000000; stroke-width: 1.5"/>
   </g>
   <g id="PathCollection_9">
    <path d="M 414.72 283.361821 
L 411.44367 284.474827 
L 410.822645 284.685796 
" clip-path="url(#pafc8bd564e)" style="fill: none; stroke: #000000; stroke-width: 1.5"/>
    <path d="M 385.854052 293.167909 
L 385.233028 293.378878 
L 381.956697 294.491885 
L 379.351123 295.377028 
L 378.680367 295.604891 
L 375.404037 296.717897 
L 372.164449 297.818422 
L 372.127706 297.830904 
L 368.851376 298.94391 
L 365.575046 300.056917 
L 364.977774 300.259817 
L 362.298716 301.169923 
L 359.022385 302.282929 
L 357.7911 302.701211 
L 355.746055 303.395936 
L 352.469725 304.508942 
L 350.604425 305.142606 
L 349.193394 305.621949 
L 345.917064 306.734955 
L 343.417751 307.584 
" clip-path="url(#pafc8bd564e)" style="fill: none; stroke: #000000; stroke-width: 1.5"/>
   </g>
   <g id="PathCollection_10"/>
   <g id="patch_3">
    <path d="M 57.6 307.584 
L 57.6 41.472 
" style="fill: none; stroke: #000000; stroke-width: 0.8; stroke-linejoin: miter; stroke-linecap: square"/>
   </g>
   <g id="patch_4">
    <path d="M 414.72 307.584 
L 414.72 41.472 
" style="fill: none; stroke: #000000; stroke-width: 0.8; stroke-linejoin: miter; stroke-linecap: square"/>
   </g>
   <g id="patch_5">
    <path d="M 57.6 307.584 
L 414.72 307.584 
" style="fill: none; stroke: #000000; stroke-width: 0.8; stroke-linejoin: miter; stroke-linecap: square"/>
   </g>
   <g id="patch_6">
    <path d="M 57.6 41.472 
L 414.72 41.472 
" style="fill: none; stroke: #000000; stroke-width: 0.8; stroke-linejoin: miter; stroke-linecap: square"/>
   </g>
   <g id="text_17">
    <!-- Annual Difference (£) between single &amp; dual tariff (single-dual) -->
    <g transform="translate(47.235 35.472)scale(0.12 -0.12)">
     <defs>
      <path id="DejaVuSans-41" d="M 2188 4044 
L 1331 1722 
L 3047 1722 
L 2188 4044 
z
M 1831 4666 
L 2547 4666 
L 4325 0 
L 3669 0 
L 3244 1197 
L 1141 1197 
L 716 0 
L 50 0 
L 1831 4666 
z
" transform="scale(0.015625)"/>
      <path id="DejaVuSans-66" d="M 2375 4863 
L 2375 4384 
L 1825 4384 
Q 1516 4384 1395 4259 
Q 1275 4134 1275 3809 
L 1275 3500 
L 2222 3500 
L 2222 3053 
L 1275 3053 
L 1275 0 
L 697 0 
L 697 3053 
L 147 3053 
L 147 3500 
L 697 3500 
L 697 3744 
Q 697 4328 969 4595 
Q 1241 4863 1831 4863 
L 2375 4863 
z
" transform="scale(0.015625)"/>
      <path id="DejaVuSans-28" d="M 1984 4856 
Q 1566 4138 1362 3434 
Q 1159 2731 1159 2009 
Q 1159 1288 1364 580 
Q 1569 -128 1984 -844 
L 1484 -844 
Q 1016 -109 783 600 
Q 550 1309 550 2009 
Q 550 2706 781 3412 
Q 1013 4119 1484 4856 
L 1984 4856 
z
" transform="scale(0.015625)"/>
      <path id="DejaVuSans-a3" d="M 3444 4563 
L 3444 3994 
Q 3206 4122 2993 4186 
Q 2781 4250 2591 4250 
Q 2128 4250 1947 4008 
Q 1766 3766 1766 3103 
L 1766 2431 
L 2988 2431 
L 2988 1984 
L 1766 1984 
L 1766 531 
L 3506 531 
L 3506 0 
L 403 0 
L 403 531 
L 1141 531 
L 1141 1984 
L 519 1984 
L 519 2431 
L 1141 2431 
L 1141 3175 
Q 1141 3991 1475 4370 
Q 1809 4750 2534 4750 
Q 2725 4750 2961 4701 
Q 3197 4653 3444 4563 
z
" transform="scale(0.015625)"/>
      <path id="DejaVuSans-29" d="M 513 4856 
L 1013 4856 
Q 1481 4119 1714 3412 
Q 1947 2706 1947 2009 
Q 1947 1309 1714 600 
Q 1481 -109 1013 -844 
L 513 -844 
Q 928 -128 1133 580 
Q 1338 1288 1338 2009 
Q 1338 2731 1133 3434 
Q 928 4138 513 4856 
z
" transform="scale(0.015625)"/>
      <path id="DejaVuSans-62" d="M 3116 1747 
Q 3116 2381 2855 2742 
Q 2594 3103 2138 3103 
Q 1681 3103 1420 2742 
Q 1159 2381 1159 1747 
Q 1159 1113 1420 752 
Q 1681 391 2138 391 
Q 2594 391 2855 752 
Q 3116 1113 3116 1747 
z
M 1159 2969 
Q 1341 3281 1617 3432 
Q 1894 3584 2278 3584 
Q 2916 3584 3314 3078 
Q 3713 2572 3713 1747 
Q 3713 922 3314 415 
Q 2916 -91 2278 -91 
Q 1894 -91 1617 61 
Q 1341 213 1159 525 
L 1159 0 
L 581 0 
L 581 4863 
L 1159 4863 
L 1159 2969 
z
" transform="scale(0.015625)"/>
      <path id="DejaVuSans-67" d="M 2906 1791 
Q 2906 2416 2648 2759 
Q 2391 3103 1925 3103 
Q 1463 3103 1205 2759 
Q 947 2416 947 1791 
Q 947 1169 1205 825 
Q 1463 481 1925 481 
Q 2391 481 2648 825 
Q 2906 1169 2906 1791 
z
M 3481 434 
Q 3481 -459 3084 -895 
Q 2688 -1331 1869 -1331 
Q 1566 -1331 1297 -1286 
Q 1028 -1241 775 -1147 
L 775 -588 
Q 1028 -725 1275 -790 
Q 1522 -856 1778 -856 
Q 2344 -856 2625 -561 
Q 2906 -266 2906 331 
L 2906 616 
Q 2728 306 2450 153 
Q 2172 0 1784 0 
Q 1141 0 747 490 
Q 353 981 353 1791 
Q 353 2603 747 3093 
Q 1141 3584 1784 3584 
Q 2172 3584 2450 3431 
Q 2728 3278 2906 2969 
L 2906 3500 
L 3481 3500 
L 3481 434 
z
" transform="scale(0.015625)"/>
      <path id="DejaVuSans-26" d="M 1556 2509 
Q 1272 2256 1139 2004 
Q 1006 1753 1006 1478 
Q 1006 1022 1337 719 
Q 1669 416 2169 416 
Q 2466 416 2725 514 
Q 2984 613 3213 813 
L 1556 2509 
z
M 1997 2859 
L 3584 1234 
Q 3769 1513 3872 1830 
Q 3975 2147 3994 2503 
L 4575 2503 
Q 4538 2091 4375 1687 
Q 4213 1284 3922 891 
L 4794 0 
L 4006 0 
L 3559 459 
Q 3234 181 2878 45 
Q 2522 -91 2113 -91 
Q 1359 -91 881 339 
Q 403 769 403 1441 
Q 403 1841 612 2192 
Q 822 2544 1241 2853 
Q 1091 3050 1012 3245 
Q 934 3441 934 3628 
Q 934 4134 1281 4442 
Q 1628 4750 2203 4750 
Q 2463 4750 2720 4694 
Q 2978 4638 3244 4525 
L 3244 3956 
Q 2972 4103 2725 4179 
Q 2478 4256 2266 4256 
Q 1938 4256 1733 4082 
Q 1528 3909 1528 3634 
Q 1528 3475 1620 3314 
Q 1713 3153 1997 2859 
z
" transform="scale(0.015625)"/>
      <path id="DejaVuSans-2d" d="M 313 2009 
L 1997 2009 
L 1997 1497 
L 313 1497 
L 313 2009 
z
" transform="scale(0.015625)"/>
     </defs>
     <use xlink:href="#DejaVuSans-41"/>
     <use xlink:href="#DejaVuSans-6e" x="68.408203"/>
     <use xlink:href="#DejaVuSans-6e" x="131.787109"/>
     <use xlink:href="#DejaVuSans-75" x="195.166016"/>
     <use xlink:href="#DejaVuSans-61" x="258.544922"/>
     <use xlink:href="#DejaVuSans-6c" x="319.824219"/>
     <use xlink:href="#DejaVuSans-20" x="347.607422"/>
     <use xlink:href="#DejaVuSans-44" x="379.394531"/>
     <use xlink:href="#DejaVuSans-69" x="456.396484"/>
     <use xlink:href="#DejaVuSans-66" x="484.179688"/>
     <use xlink:href="#DejaVuSans-66" x="519.384766"/>
     <use xlink:href="#DejaVuSans-65" x="554.589844"/>
     <use xlink:href="#DejaVuSans-72" x="616.113281"/>
     <use xlink:href="#DejaVuSans-65" x="654.976562"/>
     <use xlink:href="#DejaVuSans-6e" x="716.5"/>
     <use xlink:href="#DejaVuSans-63" x="779.878906"/>
     <use xlink:href="#DejaVuSans-65" x="834.859375"/>
     <use xlink:href="#DejaVuSans-20" x="896.382812"/>
     <use xlink:href="#DejaVuSans-28" x="928.169922"/>
     <use xlink:href="#DejaVuSans-a3" x="967.183594"/>
     <use xlink:href="#DejaVuSans-29" x="1030.806641"/>
     <use xlink:href="#DejaVuSans-20" x="1069.820312"/>
     <use xlink:href="#DejaVuSans-62" x="1101.607422"/>
     <use xlink:href="#DejaVuSans-65" x="1165.083984"/>
     <use xlink:href="#DejaVuSans-74" x="1226.607422"/>
     <use xlink:href="#DejaVuSans-77" x="1265.816406"/>
     <use xlink:href="#DejaVuSans-65" x="1347.603516"/>
     <use xlink:href="#DejaVuSans-65" x="1409.126953"/>
     <use xlink:href="#DejaVuSans-6e" x="1470.650391"/>
     <use xlink:href="#DejaVuSans-20" x="1534.029297"/>
     <use xlink:href="#DejaVuSans-73" x="1565.816406"/>
     <use xlink:href="#DejaVuSans-69" x="1617.916016"/>
     <use xlink:href="#DejaVuSans-6e" x="1645.699219"/>
     <use xlink:href="#DejaVuSans-67" x="1709.078125"/>
     <use xlink:href="#DejaVuSans-6c" x="1772.554688"/>
     <use xlink:href="#DejaVuSans-65" x="1800.337891"/>
     <use xlink:href="#DejaVuSans-20" x="1861.861328"/>
     <use xlink:href="#DejaVuSans-26" x="1893.648438"/>
     <use xlink:href="#DejaVuSans-20" x="1971.626953"/>
     <use xlink:href="#DejaVuSans-64" x="2003.414062"/>
     <use xlink:href="#DejaVuSans-75" x="2066.890625"/>
     <use xlink:href="#DejaVuSans-61" x="2130.269531"/>
     <use xlink:href="#DejaVuSans-6c" x="2191.548828"/>
     <use xlink:href="#DejaVuSans-20" x="2219.332031"/>
     <use xlink:href="#DejaVuSans-74" x="2251.119141"/>
     <use xlink:href="#DejaVuSans-61" x="2290.328125"/>
     <use xlink:href="#DejaVuSans-72" x="2351.607422"/>
     <use xlink:href="#DejaVuSans-69" x="2392.720703"/>
     <use xlink:href="#DejaVuSans-66" x="2420.503906"/>
     <use xlink:href="#DejaVuSans-66" x="2455.708984"/>
     <use xlink:href="#DejaVuSans-20" x="2490.914062"/>
     <use xlink:href="#DejaVuSans-28" x="2522.701172"/>
     <use xlink:href="#DejaVuSans-73" x="2561.714844"/>
     <use xlink:href="#DejaVuSans-69" x="2613.814453"/>
     <use xlink:href="#DejaVuSans-6e" x="2641.597656"/>
     <use xlink:href="#DejaVuSans-67" x="2704.976562"/>
     <use xlink:href="#DejaVuSans-6c" x="2768.453125"/>
     <use xlink:href="#DejaVuSans-65" x="2796.236328"/>
     <use xlink:href="#DejaVuSans-2d" x="2857.759766"/>
     <use xlink:href="#DejaVuSans-64" x="2893.84375"/>
     <use xlink:href="#DejaVuSans-75" x="2957.320312"/>
     <use xlink:href="#DejaVuSans-61" x="3020.699219"/>
     <use xlink:href="#DejaVuSans-6c" x="3081.978516"/>
     <use xlink:href="#DejaVuSans-29" x="3109.761719"/>
    </g>
   </g>
   <g id="text_18">
    <g clip-path="url(#pafc8bd564e)">
     <!-- −450 -->
     <g transform="translate(132.094487 63.150614)rotate(-18.763204)scale(0.1 -0.1)">
      <defs>
       <path id="DejaVuSans-2212" d="M 678 2272 
L 4684 2272 
L 4684 1741 
L 678 1741 
L 678 2272 
z
" transform="scale(0.015625)"/>
      </defs>
      <use xlink:href="#DejaVuSans-2212"/>
      <use xlink:href="#DejaVuSans-34" x="83.789062"/>
      <use xlink:href="#DejaVuSans-35" x="147.412109"/>
      <use xlink:href="#DejaVuSans-30" x="211.035156"/>
     </g>
    </g>
   </g>
   <g id="text_19">
    <g clip-path="url(#pafc8bd564e)">
     <!-- −300 -->
     <g transform="translate(320.695581 52.270115)rotate(-18.763204)scale(0.1 -0.1)">
      <use xlink:href="#DejaVuSans-2212"/>
      <use xlink:href="#DejaVuSans-33" x="83.789062"/>
      <use xlink:href="#DejaVuSans-30" x="147.412109"/>
      <use xlink:href="#DejaVuSans-30" x="211.035156"/>
     </g>
    </g>
   </g>
   <g id="text_20">
    <g clip-path="url(#pafc8bd564e)">
     <!-- −150 -->
     <g transform="translate(104.457783 178.917959)rotate(-18.763204)scale(0.1 -0.1)">
      <use xlink:href="#DejaVuSans-2212"/>
      <use xlink:href="#DejaVuSans-31" x="83.789062"/>
      <use xlink:href="#DejaVuSans-35" x="147.412109"/>
      <use xlink:href="#DejaVuSans-30" x="211.035156"/>
     </g>
    </g>
   </g>
   <g id="text_21">
    <g clip-path="url(#pafc8bd564e)">
     <!-- 0 -->
     <g transform="translate(115.922784 228.212592)rotate(-18.763204)scale(0.1 -0.1)">
      <use xlink:href="#DejaVuSans-30"/>
     </g>
    </g>
   </g>
   <g id="text_22">
    <g clip-path="url(#pafc8bd564e)">
     <!-- 150 -->
     <g transform="translate(85.49065 291.740154)rotate(-18.763204)scale(0.1 -0.1)">
      <use xlink:href="#DejaVuSans-31"/>
      <use xlink:href="#DejaVuSans-35" x="63.623047"/>
      <use xlink:href="#DejaVuSans-30" x="127.246094"/>
     </g>
    </g>
   </g>
   <g id="text_23">
    <g clip-path="url(#pafc8bd564e)">
     <!-- 300 -->
     <g transform="translate(200.256362 305.942368)rotate(-18.763204)scale(0.1 -0.1)">
      <use xlink:href="#DejaVuSans-33"/>
      <use xlink:href="#DejaVuSans-30" x="63.623047"/>
      <use xlink:href="#DejaVuSans-30" x="127.246094"/>
     </g>
    </g>
   </g>
   <g id="text_24">
    <g clip-path="url(#pafc8bd564e)">
     <!-- 450 -->
     <g transform="translate(390.189366 294.609404)rotate(-18.763204)scale(0.1 -0.1)">
      <use xlink:href="#DejaVuSans-34"/>
      <use xlink:href="#DejaVuSans-35" x="63.623047"/>
      <use xlink:href="#DejaVuSans-30" x="127.246094"/>
     </g>
    </g>
   </g>
  </g>
 </g>
 <defs>
  <clipPath id="pafc8bd564e">
   <rect x="57.6" y="41.472" width="357.12" height="266.112"/>
  </clipPath>
 </defs>
</svg>
